<svg version="1.1" id="Layer_1" xmlns="http://www.w3.org/2000/svg" xmlns:xlink="http://www.w3.org/1999/xlink" x="0px" y="0px"
	 width="100%" viewBox="0 0 1024 1024" enable-background="new 0 0 1024 1024" xml:space="preserve">
<path fill="#000000" opacity="1.000000" stroke="none" 
	d="
M513.319458,657.224609 
	C500.655182,644.899170 493.760071,629.968323 492.007233,612.887756 
	C491.419464,607.160400 488.976807,603.181030 485.086884,599.680969 
	C482.174622,597.060608 478.947327,594.790405 475.525726,592.741760 
	C479.942657,597.419128 485.998505,600.571472 488.758453,607.664734 
	C479.203369,610.440918 471.021851,608.888062 463.543732,603.254333 
	C460.724579,601.130493 458.550140,598.359802 456.637482,595.409912 
	C453.206146,590.117676 449.828033,584.789368 444.290649,580.775146 
	C453.368927,577.857910 462.402588,577.699585 471.405426,580.278687 
	C480.933960,583.008545 487.729492,589.021362 491.107941,598.704346 
	C493.344482,597.166504 492.856537,595.099670 493.179047,593.496765 
	C496.746033,575.768738 507.481293,562.157532 518.797119,548.956970 
	C530.252502,535.593628 541.038391,521.917419 545.387207,504.349854 
	C545.488708,503.939636 545.997070,503.630096 546.534180,503.028961 
	C549.254944,507.529388 547.432739,511.973633 546.756653,516.161682 
	C545.103882,526.399170 540.157532,535.275391 534.295166,543.686401 
	C527.058167,554.069580 518.588623,563.551025 511.929718,574.357300 
	C503.853912,587.463013 499.741425,601.506470 501.890656,617.148804 
	C505.549347,595.427429 519.444214,579.573181 532.383240,563.161560 
	C540.043762,553.445068 546.978210,543.298462 550.872559,531.371460 
	C554.328003,520.788513 554.279419,510.282898 549.330139,500.272430 
	C544.343567,490.186615 544.847778,480.903534 551.146545,471.579834 
	C555.152161,465.650604 554.157288,462.276459 548.227356,458.276978 
	C546.710144,457.253632 544.973511,456.396942 543.792419,455.061523 
	C539.103699,449.760345 534.010803,446.829529 526.263733,446.914368 
	C518.038025,447.004425 514.409485,437.501556 519.041382,430.516174 
	C521.521790,426.775513 525.317505,424.613708 528.969971,422.298584 
	C533.773499,419.253876 537.419861,415.672485 538.213379,409.471893 
	C538.707031,405.613739 540.636414,401.877228 546.255798,400.752930 
	C545.360046,406.446655 547.672363,411.347565 548.081848,416.518250 
	C548.500244,421.802368 544.348267,426.738190 538.071045,428.784180 
	C534.291199,430.016174 530.270203,430.494720 526.457581,431.643707 
	C522.972046,432.694061 519.731201,434.412659 520.508911,438.938965 
	C521.049988,442.087677 525.354248,444.167511 529.518982,442.844940 
	C534.222046,441.351379 537.445190,442.837677 540.540771,446.248962 
	C544.371460,450.470245 548.714111,454.109589 554.364075,455.768311 
	C556.682434,456.448944 557.777222,458.120575 558.457825,460.367035 
	C559.944763,465.275238 558.720886,469.569977 555.836975,473.551300 
	C549.675781,482.056946 549.446777,488.299042 555.163025,497.150208 
	C565.871765,513.731934 564.811218,530.482361 555.872681,547.298767 
	C549.236023,559.784485 539.647400,570.031250 530.321350,580.460876 
	C523.747803,587.812378 517.688599,595.563843 513.170044,604.346985 
	C504.666840,620.875305 503.963654,637.424927 513.724304,653.811646 
	C515.077393,656.083374 515.019775,656.117676 513.319458,657.224609 
z"/>
<path fill="#000000" opacity="1.000000" stroke="none" 
	d="
M156.650879,496.059937 
	C156.658798,485.641815 156.658798,485.645447 166.370773,485.658264 
	C173.364578,485.667480 180.358658,485.706116 187.352112,485.657745 
	C195.674500,485.600189 203.222870,487.401184 206.729965,495.899963 
	C210.225189,504.369965 208.309280,511.890930 200.598434,517.897766 
	C202.631531,520.105408 205.315720,521.252136 206.980759,523.549927 
	C214.647324,534.130066 209.368423,548.812744 196.227386,551.885071 
	C184.281052,554.677979 172.015244,552.783081 159.893097,552.941956 
	C156.935928,552.980713 156.298035,550.662048 156.322189,547.994507 
	C156.477463,530.847168 156.550659,513.699097 156.650879,496.059937 
M175.635468,541.952148 
	C180.444092,541.890259 185.276459,542.103333 190.054779,541.690674 
	C195.009674,541.262756 197.694107,538.147766 197.819641,533.599915 
	C197.962448,528.425903 195.276703,524.856201 190.230667,524.216187 
	C186.795502,523.780518 183.280914,523.911316 179.801361,523.896301 
	C168.283997,523.846619 168.536652,523.872437 168.209702,535.577209 
	C168.067322,540.673828 169.701767,542.684937 175.635468,541.952148 
M168.809799,511.657104 
	C175.006195,514.369446 181.488983,512.893921 187.824661,512.725342 
	C193.179703,512.582825 195.827545,509.402924 195.786285,504.469269 
	C195.746582,499.723328 192.806549,496.651215 187.533096,496.395752 
	C182.559616,496.154877 177.563873,496.413666 172.582596,496.279358 
	C169.241730,496.189301 168.202164,497.835205 168.336472,500.884674 
	C168.482529,504.201416 168.454971,507.525818 168.809799,511.657104 
z"/>
<path fill="#000000" opacity="1.000000" stroke="none" 
	d="
M510.802948,441.338745 
	C503.182526,439.676239 498.819427,445.188751 500.731750,453.092743 
	C503.215302,463.357910 509.407471,471.308136 516.565491,478.663177 
	C519.932251,482.122559 523.486633,485.413879 526.244019,489.415863 
	C533.248413,499.581757 531.710876,510.106567 521.852051,517.499146 
	C517.334961,520.886292 512.371460,523.671692 507.692932,526.851501 
	C492.994141,536.841675 487.882782,551.222473 488.899353,568.340210 
	C489.089935,571.548950 489.462311,574.746887 489.261017,578.068359 
	C485.307831,573.506775 484.157776,567.807434 482.984772,562.297974 
	C480.746887,551.786865 482.148834,541.426880 488.359009,532.679871 
	C492.754303,526.489136 491.999268,521.433411 488.362610,515.819702 
	C487.110535,513.886902 486.226410,511.671814 483.579712,509.832520 
	C486.297821,515.534363 490.018921,520.105347 490.631104,525.972290 
	C480.580261,527.044861 469.423706,519.130676 466.654327,510.633698 
	C464.202362,503.110504 463.652191,494.987579 459.353485,487.843384 
	C479.349274,490.998688 495.536835,498.014984 495.909515,522.476990 
	C502.823578,518.009216 508.980927,514.389465 514.740417,510.220184 
	C522.398926,504.676086 523.378540,497.216400 517.925964,489.295044 
	C514.316833,484.051788 509.708038,479.690277 505.271912,475.179321 
	C499.102783,468.906158 494.176117,461.912872 492.418945,453.063995 
	C491.301025,447.434265 492.083801,442.327545 497.005035,438.785492 
	C501.718597,435.392853 507.337067,436.138031 513.065979,440.465851 
	C512.854797,441.668427 511.938141,441.392029 510.802948,441.338745 
z"/>
<path fill="#000000" opacity="1.000000" stroke="none" 
	d="
M611.147095,537.852783 
	C612.296753,531.374207 611.292419,529.179810 605.596619,527.223267 
	C599.952881,525.284607 594.094849,523.980103 588.385864,522.218750 
	C577.316956,518.803711 572.265991,512.759033 572.755249,503.761688 
	C573.274719,494.207764 579.935791,486.933777 590.577087,485.155609 
	C600.213379,483.545319 609.535217,484.798187 617.783691,490.545990 
	C622.218872,493.636566 622.653870,496.548553 619.632385,500.040314 
	C617.048340,503.026581 614.722046,503.786377 611.300537,500.691772 
	C605.449158,495.399292 598.379944,494.106537 590.824890,496.469757 
	C587.622742,497.471375 585.316040,499.470612 585.190857,503.244812 
	C585.065979,507.006622 587.135010,509.333710 590.342529,510.361816 
	C596.189209,512.235962 602.206909,513.570374 608.084045,515.357544 
	C615.391052,517.579529 621.483398,521.205627 623.461609,529.411621 
	C625.244385,536.807129 622.661804,544.378296 616.576477,548.870239 
	C605.119141,557.327393 583.410339,555.339783 573.550537,545.026550 
	C570.915222,542.270020 570.392151,539.876160 573.321899,536.917786 
	C576.194641,534.017029 578.422485,533.609497 581.696106,536.667175 
	C590.535645,544.924072 603.778320,545.428284 611.147095,537.852783 
z"/>
<path fill="#000000" opacity="1.000000" stroke="none" 
	d="
M677.151855,519.996582 
	C678.902344,525.424072 680.548462,530.466736 682.460205,536.323303 
	C684.944092,532.813904 685.480591,529.402466 686.547485,526.268311 
	C688.478271,520.596497 690.205505,514.853699 691.933105,509.114990 
	C693.060547,505.369781 695.484802,503.707184 699.366638,503.915710 
	C703.753052,504.151245 705.009827,505.759674 703.528992,510.045258 
	C699.179382,522.633362 694.630005,535.152588 690.298645,547.746826 
	C688.888733,551.846313 686.335449,553.417297 682.030090,553.296448 
	C677.716003,553.175537 676.491882,550.537231 675.430176,547.118774 
	C672.936890,539.091187 670.246521,531.124817 667.635925,523.133667 
	C667.161255,523.141479 666.686584,523.149231 666.211914,523.157043 
	C663.544617,531.310669 660.784851,539.435791 658.250122,547.630432 
	C657.041199,551.538757 654.787476,553.359680 650.610779,553.268188 
	C647.342468,553.196655 645.166138,551.993469 644.089417,548.936890 
	C639.441711,535.742615 634.803040,522.545044 630.195740,509.336639 
	C629.406372,507.073425 629.351685,504.809967 632.323425,504.263184 
	C635.965271,503.593079 639.890869,502.926117 641.484009,507.703522 
	C643.852356,514.806091 646.027466,521.973083 648.386658,529.078857 
	C649.046814,531.067078 649.221008,533.326477 651.234863,535.132080 
	C653.577576,531.713318 654.314026,527.801392 655.591614,524.146912 
	C657.183777,519.592468 658.616089,514.978455 659.988647,510.352020 
	C661.056641,506.752197 662.546021,504.001617 667.000061,503.888397 
	C671.488098,503.774261 673.127197,506.374908 674.148010,510.060333 
	C675.035950,513.265869 676.075073,516.429565 677.151855,519.996582 
z"/>
<path fill="#000000" opacity="1.000000" stroke="none" 
	d="
M288.649658,553.088562 
	C284.697998,553.334778 281.026428,553.863647 279.619751,549.347229 
	C267.362396,556.008789 256.816498,555.086609 249.289169,546.794617 
	C241.332153,538.029236 240.676758,522.736450 247.816360,512.427063 
	C254.315643,503.042206 264.574646,501.203522 279.995941,507.250031 
	C279.995941,501.165253 279.839783,495.440186 280.044739,489.728119 
	C280.212494,485.052582 282.219086,483.590363 286.768219,483.961243 
	C290.249054,484.245026 291.865875,486.154633 291.876923,489.466736 
	C291.942352,509.094421 291.972595,528.722290 291.975861,548.350098 
	C291.976227,550.430115 291.484009,552.360107 288.649658,553.088562 
M279.716217,534.813843 
	C279.732941,530.997681 279.723175,527.181152 279.775848,523.365479 
	C279.809967,520.889343 278.920776,518.848999 277.142761,517.154175 
	C270.300964,510.632751 257.869904,514.134766 255.534149,523.262146 
	C254.612671,526.862976 254.683075,530.510254 255.517288,534.096741 
	C256.822113,539.706482 261.443268,543.332581 267.427002,543.643250 
	C273.392975,543.953003 277.478607,541.280518 279.716217,534.813843 
z"/>
<path fill="#000000" opacity="1.000000" stroke="none" 
	d="
M339.631348,492.134521 
	C339.754120,485.120483 341.249939,483.393555 346.291992,483.961792 
	C349.328491,484.304016 351.273926,485.713715 351.273346,489.035706 
	C351.269775,508.839813 351.261414,528.643921 351.268555,548.448059 
	C351.269440,550.922485 350.370361,552.722229 347.725311,553.036560 
	C344.180847,553.457886 340.630615,553.700623 339.185303,549.322144 
	C327.302704,555.941284 316.078857,555.208191 308.934509,547.473450 
	C300.902618,538.777832 299.805267,522.910950 306.556671,513.091309 
	C313.411194,503.121643 323.269592,501.277313 339.151917,507.357788 
	C340.178314,502.379578 339.382629,497.456451 339.631348,492.134521 
M318.757172,540.812561 
	C330.179443,547.460938 339.567230,542.259949 339.615997,529.255493 
	C339.619751,528.255615 339.631256,527.255310 339.606537,526.255981 
	C339.431763,519.183655 336.214905,515.144958 330.076263,514.276550 
	C322.530304,513.209045 316.303680,516.486023 314.746246,523.018127 
	C313.283234,529.154236 313.313232,535.311829 318.757172,540.812561 
z"/>
<path fill="#000000" opacity="1.000000" stroke="none" 
	d="
M813.012024,515.217896 
	C814.979004,519.153198 816.195496,522.867981 816.372620,526.969971 
	C816.566956,531.469299 814.684509,533.334229 810.212097,533.271606 
	C801.227783,533.145813 792.240234,533.231934 783.254211,533.262573 
	C781.947021,533.267029 780.640442,533.447449 779.376587,533.543152 
	C778.573669,542.271484 792.011230,546.573853 799.842224,542.127319 
	C801.282043,541.309875 802.575989,540.237122 803.945984,539.294922 
	C806.894958,537.266846 809.475891,538.537842 811.550354,540.600037 
	C813.975098,543.010498 812.203674,545.181519 810.446350,547.077515 
	C804.115112,553.908386 792.188843,556.103333 782.117065,552.335449 
	C772.819946,548.857300 766.996948,540.507385 766.611755,530.539856 
	C766.221130,520.429810 769.510193,512.091003 778.388855,506.824951 
	C786.889893,501.782806 795.747437,501.722534 804.537781,506.501434 
	C808.161133,508.471283 810.925598,511.241486 813.012024,515.217896 
M793.111389,513.368835 
	C784.271545,513.386902 779.624817,516.852051 779.109253,523.931885 
	C786.386169,523.931885 793.658264,524.013611 800.927002,523.892090 
	C803.882629,523.842712 804.031860,521.981323 802.989685,519.728943 
	C801.195984,515.852783 797.772034,514.334412 793.111389,513.368835 
z"/>
<path fill="#000000" opacity="1.000000" stroke="none" 
	d="
M727.270142,541.947876 
	C734.074646,544.975037 740.182922,544.867981 745.736816,539.943420 
	C748.714966,537.302734 751.897949,538.080872 754.250977,540.476746 
	C756.831604,543.104370 754.401794,545.364563 752.560913,547.281616 
	C746.032349,554.080383 734.567749,556.072266 724.666199,552.204529 
	C715.468750,548.611877 710.205078,540.532288 709.560486,530.633606 
	C708.213623,509.949310 728.042908,498.024628 744.872864,505.329987 
	C753.247559,508.965149 759.489380,518.581726 759.189392,527.648804 
	C759.059326,531.581116 757.070435,533.280884 753.151794,533.236877 
	C744.820496,533.143372 736.487244,533.189392 728.155090,533.233032 
	C726.182739,533.243347 724.158203,532.890930 721.995605,533.825439 
	C721.853210,537.575073 724.291321,539.724487 727.270142,541.947876 
M727.670898,514.955627 
	C724.526001,516.782349 722.514832,519.386475 721.510864,524.039795 
	C728.931030,524.039795 735.800537,524.141785 742.665100,524.001709 
	C746.811829,523.917114 747.510437,522.290588 745.238220,518.698425 
	C742.106689,513.747864 735.646545,512.177490 727.670898,514.955627 
z"/>
<path fill="#000000" opacity="1.000000" stroke="none" 
	d="
M389.611725,543.817749 
	C393.209625,543.639771 395.671509,541.896667 398.088165,540.113464 
	C401.155487,537.850098 404.293396,538.050110 406.536621,540.842651 
	C408.768555,543.621155 406.257233,545.754517 404.354187,547.610046 
	C396.281433,555.481384 382.701996,556.447693 372.421265,549.931458 
	C362.959198,543.934021 358.950623,531.620911 362.810638,520.410889 
	C366.891022,508.560974 377.221252,502.233002 390.185455,503.641998 
	C401.150024,504.833618 409.701630,513.574829 411.218079,525.141052 
	C412.036865,531.386292 410.428955,533.225037 403.923615,533.255249 
	C395.764343,533.293152 387.604462,533.213501 379.445221,533.256104 
	C377.667267,533.265381 375.791992,532.786560 374.124664,533.845703 
	C375.162109,540.914917 379.672363,543.897278 389.611725,543.817749 
M384.606445,524.638916 
	C389.321655,524.311157 394.176239,525.450684 398.745361,523.523071 
	C397.947784,516.932251 393.380432,513.224670 386.362457,513.268860 
	C379.460449,513.312317 374.746735,517.347229 373.808075,524.636047 
	C377.141998,524.636047 380.406189,524.636047 384.606445,524.638916 
z"/>
<path fill="#000000" opacity="1.000000" stroke="none" 
	d="
M830.665039,527.028809 
	C830.662354,524.539490 830.486694,522.524963 830.693909,520.550659 
	C831.104065,516.642761 829.669189,514.574646 825.565063,514.494629 
	C822.164429,514.428467 821.007690,512.153748 820.971497,509.153229 
	C820.940247,506.556000 822.032532,504.109283 824.774963,504.188049 
	C830.734070,504.359100 831.068909,500.842712 830.669922,496.445190 
	C830.278931,492.136169 831.442932,489.381409 836.621399,489.577545 
	C840.447632,489.722443 842.089233,491.406036 842.174622,495.018799 
	C842.202087,496.182800 842.321106,497.361725 842.187561,498.509338 
	C841.710754,502.607422 843.412415,504.329254 847.560791,503.972290 
	C849.674438,503.790405 852.032776,503.561798 853.729126,505.234741 
	C855.437378,506.919342 855.372314,509.121552 854.785767,511.310913 
	C854.165039,513.627930 852.503052,514.242188 850.275818,514.397339 
	C842.279968,514.954102 842.279663,515.008728 842.243652,523.006409 
	C842.223389,527.498047 842.150391,531.991028 842.225891,536.481262 
	C842.314941,541.774048 843.742188,543.191040 848.819519,542.624329 
	C851.924744,542.277771 854.539429,542.136963 855.207703,546.067749 
	C855.886963,550.062988 854.314331,552.280579 850.316040,553.260986 
	C838.289429,556.209961 830.702026,550.393372 830.664307,538.002502 
	C830.653687,534.508911 830.664368,531.015320 830.665039,527.028809 
z"/>
<path fill="#000000" opacity="1.000000" stroke="none" 
	d="
M485.768616,418.273956 
	C490.061737,421.625977 494.964691,422.940063 499.438171,425.128876 
	C501.567749,426.170807 504.130066,426.753418 506.009186,430.409485 
	C495.671814,427.328552 485.910767,426.647522 476.258728,421.496521 
	C480.447144,428.949493 486.884033,429.761688 493.226898,430.636230 
	C496.352386,431.067139 499.546722,431.029907 502.655701,431.536865 
	C504.330048,431.809906 506.317352,432.148834 507.177307,434.883209 
	C500.234802,435.243774 494.048706,438.380981 487.341766,438.942261 
	C482.136444,439.377869 477.274139,437.674164 474.131561,433.285706 
	C471.625702,429.786438 468.839203,426.962433 464.425903,425.821045 
	C465.237366,421.311737 469.446686,421.163116 472.543732,418.664307 
	C468.547668,412.555389 465.164215,405.895935 470.129150,398.672363 
	C472.841187,394.726593 476.257141,391.437256 482.358185,389.418579 
	C478.159729,400.296478 477.284546,409.866028 485.768616,418.273956 
z"/>
<path fill="#000000" opacity="1.000000" stroke="none" 
	d="
M428.796082,553.164062 
	C421.964508,552.996094 421.665314,552.718689 421.646759,546.244995 
	C421.613831,534.755249 421.550507,523.264587 421.666901,511.776062 
	C421.694580,509.046967 420.390045,505.551483 424.831604,504.484955 
	C429.114319,503.456482 431.677399,504.490479 434.124908,508.770050 
	C437.929321,506.492859 441.457642,503.602844 446.292816,503.678009 
	C449.925568,503.734497 451.335052,505.468170 451.294647,508.962982 
	C451.257690,512.159973 450.657745,514.205933 446.692200,514.524658 
	C435.889984,515.392944 433.234528,518.532410 433.217041,529.389526 
	C433.207153,535.550720 433.179108,541.712036 433.215790,547.872986 
	C433.232574,550.691040 432.476776,552.823914 428.796082,553.164062 
z"/>
<path fill="#000000" opacity="1.000000" stroke="none" 
	d="
M498.674866,389.317230 
	C504.713318,386.953522 509.830322,387.359680 513.869995,392.433685 
	C516.757324,396.060333 516.556152,399.837830 512.819885,402.419403 
	C505.863953,407.225586 498.249786,408.971222 490.165283,405.414368 
	C486.265625,403.698639 482.247223,401.158386 482.468140,396.484131 
	C482.728821,390.967865 484.851501,385.695801 489.934296,382.557739 
	C493.176880,380.555756 496.635254,378.817993 500.170380,377.391815 
	C509.471344,373.639709 519.251160,381.511078 517.599365,392.188812 
	C513.335266,388.978210 509.412659,385.703918 503.916077,385.675903 
	C498.962097,385.650696 494.661774,386.979401 491.239502,390.432312 
	C487.366455,394.340057 488.864655,399.848816 494.087769,401.510620 
	C497.357452,402.550964 500.672882,402.442963 503.907654,401.306610 
	C506.314178,400.461212 508.649475,399.453888 508.740967,396.326111 
	C508.789520,394.666565 508.121857,393.262787 506.590118,392.703461 
	C503.850464,391.703064 501.154297,391.582092 498.943451,394.120728 
	C500.773285,397.293213 503.333374,394.580109 505.653625,395.425476 
	C506.307556,398.618134 504.122345,399.796753 501.630035,400.120026 
	C497.961761,400.595856 494.028015,399.787567 492.873749,396.014740 
	C491.703674,392.190308 495.432953,390.814850 498.674866,389.317230 
z"/>
<path fill="#000000" opacity="1.000000" stroke="none" 
	d="
M233.094360,510.347992 
	C233.091827,522.793762 233.123947,534.779968 233.061340,546.765686 
	C233.033356,552.125671 231.710449,553.223633 226.606354,553.297302 
	C223.042709,553.348694 221.302902,551.839600 221.263062,548.336426 
	C221.217651,544.343323 221.031250,540.339783 221.240585,536.358398 
	C221.686752,527.872070 221.763214,519.393799 221.256165,510.913818 
	C221.047623,507.426270 221.486969,504.571228 225.851257,504.144745 
	C230.540039,503.686584 232.399994,505.079407 233.094360,510.347992 
z"/>
<path fill="#000000" opacity="1.000000" stroke="none" 
	d="
M537.256042,407.992859 
	C534.323181,412.696991 530.903442,416.437012 526.461609,419.756714 
	C525.023743,417.169434 526.711670,415.639008 527.548401,414.085663 
	C533.344849,403.324799 532.203674,396.701965 523.030090,388.487183 
	C521.792480,387.378967 520.442078,386.348206 519.418091,385.063080 
	C518.328918,383.696136 516.613159,382.144043 517.831909,380.236847 
	C519.077698,378.287354 521.452332,378.354065 523.295959,379.029633 
	C535.596130,383.536285 544.844482,392.075531 537.256042,407.992859 
z"/>
<path fill="#000000" opacity="1.000000" stroke="none" 
	d="
M522.217285,393.216248 
	C527.546326,394.361145 527.364929,399.068298 528.179871,402.860474 
	C529.004395,406.697479 527.896484,410.536469 525.752502,413.835724 
	C521.288574,420.704956 515.042725,426.508606 513.994080,436.186523 
	C510.145447,432.068726 510.273682,428.250214 510.537933,424.514038 
	C510.997314,418.019012 513.935669,412.395386 517.254028,406.973541 
	C519.805542,402.804565 521.809998,398.480621 522.217285,393.216248 
z"/>
<path fill="#000000" opacity="1.000000" stroke="none" 
	d="
M508.749084,423.442749 
	C508.184845,425.152802 508.865509,426.845459 507.171112,428.130707 
	C498.389191,422.271759 486.395996,419.843567 483.865295,405.562134 
	C491.656830,410.073669 499.441315,411.284210 507.260406,412.419312 
	C510.429749,412.879364 511.403473,414.689117 510.163483,417.784882 
	C509.493927,419.456573 509.261688,421.303436 508.749084,423.442749 
z"/>
<path fill="#000000" opacity="1.000000" stroke="none" 
	d="
M230.153137,484.442261 
	C233.573853,486.574158 234.384369,489.423645 233.558838,492.765900 
	C232.956665,495.203766 231.325699,496.794678 228.784393,497.202789 
	C225.818329,497.679047 223.145630,497.055908 221.310425,494.491364 
	C219.438843,491.876068 219.836716,489.055176 221.463882,486.598694 
	C223.460571,483.584229 226.481979,483.145508 230.153137,484.442261 
z"/>
<path fill="#000000" opacity="1.000000" stroke="none" 
	d="
M542.323669,461.182159 
	C546.226440,468.284546 544.901794,474.393799 539.354248,477.851562 
	C534.459045,480.902679 524.527405,478.961151 522.578613,473.334991 
	C524.062500,471.860992 525.334290,473.324493 526.577515,473.751587 
	C534.730164,476.552216 540.488098,472.712708 540.882812,464.203583 
	C540.934509,463.088135 539.984558,461.458160 542.323669,461.182159 
z"/>
<path fill="#000000" opacity="1.000000" stroke="none" 
	d="
M514.622681,408.638123 
	C511.180542,414.853119 508.033691,410.579987 504.073730,408.899719 
	C507.664886,406.153168 511.381348,405.907898 514.708740,404.857544 
	C515.928955,406.223083 515.097961,407.261871 514.622681,408.638123 
z"/>
</svg>