<svg xmlns="http://www.w3.org/2000/svg" viewBox="0 0 1024 1024"><path fill="#000000" opacity="1.000000" stroke="none" d=" M513,657 C501,645 494,630 492,613 C491,607 489,603 485,600 C482,597 479,595 476,593 C480,597 486,601 489,608 C479,610 471,609 464,603 C461,601 459,598 457,595 C453,590 450,585 444,581 C453,578 462,578 471,580 C481,583 488,589 491,599 C493,597 493,595 493,593 C497,576 507,562 519,549 C530,536 541,522 545,504 C545,504 546,504 547,503 C549,508 547,512 547,516 C545,526 540,535 534,544 C527,554 519,564 512,574 C504,587 500,602 502,617 C506,595 519,580 532,563 C540,553 547,543 551,531 C554,521 554,510 549,500 C544,490 545,481 551,472 C555,466 554,462 548,458 C547,457 545,456 544,455 C539,450 534,447 526,447 C518,447 514,438 519,431 C522,427 525,425 529,422 C534,419 537,416 538,409 C539,406 541,402 546,401 C545,406 548,411 548,417 C549,422 544,427 538,429 C534,430 530,430 526,432 C523,433 520,434 521,439 C521,442 525,444 530,443 C534,441 537,443 541,446 C544,450 549,454 554,456 C557,456 558,458 558,460 C560,465 559,470 556,474 C550,482 549,488 555,497 C566,514 565,530 556,547 C549,560 540,570 530,580 C524,588 518,596 513,604 C505,621 504,637 514,654 C515,656 515,656 513,657 z"/><path fill="#000000" opacity="1.000000" stroke="none" d=" M157,496 C157,486 157,486 166,486 C173,486 180,486 187,486 C196,486 203,487 207,496 C210,504 208,512 201,518 C203,520 205,521 207,524 C215,534 209,549 196,552 C184,555 172,553 160,553 C157,553 156,551 156,548 C156,531 157,514 157,496 M176,542 C180,542 185,542 190,542 C195,541 198,538 198,534 C198,528 195,525 190,524 C187,524 183,524 180,524 C168,524 169,524 168,536 C168,541 170,543 176,542 M169,512 C175,514 181,513 188,513 C193,513 196,509 196,504 C196,500 193,497 188,496 C183,496 178,496 173,496 C169,496 168,498 168,501 C168,504 168,508 169,512 z"/><path fill="#000000" opacity="1.000000" stroke="none" d=" M511,441 C503,440 499,445 501,453 C503,463 509,471 517,479 C520,482 523,485 526,489 C533,500 532,510 522,517 C517,521 512,524 508,527 C493,537 488,551 489,568 C489,572 489,575 489,578 C485,574 484,568 483,562 C481,552 482,541 488,533 C493,526 492,521 488,516 C487,514 486,512 484,510 C486,516 490,520 491,526 C481,527 469,519 467,511 C464,503 464,495 459,488 C479,491 496,498 496,522 C503,518 509,514 515,510 C522,505 523,497 518,489 C514,484 510,480 505,475 C499,469 494,462 492,453 C491,447 492,442 497,439 C502,435 507,436 513,440 C513,442 512,441 511,441 z"/><path fill="#000000" opacity="1.000000" stroke="none" d=" M611,538 C612,531 611,529 606,527 C600,525 594,524 588,522 C577,519 572,513 573,504 C573,494 580,487 591,485 C600,484 610,485 618,491 C622,494 623,497 620,500 C617,503 615,504 611,501 C605,495 598,494 591,496 C588,497 585,499 585,503 C585,507 587,509 590,510 C596,512 602,514 608,515 C615,518 621,521 623,529 C625,537 623,544 617,549 C605,557 583,555 574,545 C571,542 570,540 573,537 C576,534 578,534 582,537 C591,545 604,545 611,538 z"/><path fill="#000000" opacity="1.000000" stroke="none" d=" M677,520 C679,525 681,530 682,536 C685,533 685,529 687,526 C688,521 690,515 692,509 C693,505 695,504 699,504 C704,504 705,506 704,510 C699,523 695,535 690,548 C689,552 686,553 682,553 C678,553 676,551 675,547 C673,539 670,531 668,523 C667,523 667,523 666,523 C664,531 661,539 658,548 C657,552 655,553 651,553 C647,553 645,552 644,549 C639,536 635,523 630,509 C629,507 629,505 632,504 C636,504 640,503 641,508 C644,515 646,522 648,529 C649,531 649,533 651,535 C654,532 654,528 656,524 C657,520 659,515 660,510 C661,507 663,504 667,504 C671,504 673,506 674,510 C675,513 676,516 677,520 z"/><path fill="#000000" opacity="1.000000" stroke="none" d=" M289,553 C285,553 281,554 280,549 C267,556 257,555 249,547 C241,538 241,523 248,512 C254,503 265,501 280,507 C280,501 280,495 280,490 C280,485 282,484 287,484 C290,484 292,486 292,489 C292,509 292,529 292,548 C292,550 291,552 289,553 M280,535 C280,531 280,527 280,523 C280,521 279,519 277,517 C270,511 258,514 256,523 C255,527 255,531 256,534 C257,540 261,543 267,544 C273,544 277,541 280,535 z"/><path fill="#000000" opacity="1.000000" stroke="none" d=" M340,492 C340,485 341,483 346,484 C349,484 351,486 351,489 C351,509 351,529 351,548 C351,551 350,553 348,553 C344,553 341,554 339,549 C327,556 316,555 309,547 C301,539 300,523 307,513 C313,503 323,501 339,507 C340,502 339,497 340,492 M319,541 C330,547 340,542 340,529 C340,528 340,527 340,526 C339,519 336,515 330,514 C323,513 316,516 315,523 C313,529 313,535 319,541 z"/><path fill="#000000" opacity="1.000000" stroke="none" d=" M813,515 C815,519 816,523 816,527 C817,531 815,533 810,533 C801,533 792,533 783,533 C782,533 781,533 779,534 C779,542 792,547 800,542 C801,541 803,540 804,539 C807,537 809,539 812,541 C814,543 812,545 810,547 C804,554 792,556 782,552 C773,549 767,541 767,531 C766,520 770,512 778,507 C787,502 796,502 805,507 C808,508 811,511 813,515 M793,513 C784,513 780,517 779,524 C786,524 794,524 801,524 C804,524 804,522 803,520 C801,516 798,514 793,513 z"/><path fill="#000000" opacity="1.000000" stroke="none" d=" M727,542 C734,545 740,545 746,540 C749,537 752,538 754,540 C757,543 754,545 753,547 C746,554 735,556 725,552 C715,549 710,541 710,531 C708,510 728,498 745,505 C753,509 759,519 759,528 C759,532 757,533 753,533 C745,533 736,533 728,533 C726,533 724,533 722,534 C722,538 724,540 727,542 M728,515 C725,517 723,519 722,524 C729,524 736,524 743,524 C747,524 748,522 745,519 C742,514 736,512 728,515 z"/><path fill="#000000" opacity="1.000000" stroke="none" d=" M390,544 C393,544 396,542 398,540 C401,538 404,538 407,541 C409,544 406,546 404,548 C396,555 383,556 372,550 C363,544 359,532 363,520 C367,509 377,502 390,504 C401,505 410,514 411,525 C412,531 410,533 404,533 C396,533 388,533 379,533 C378,533 376,533 374,534 C375,541 380,544 390,544 M385,525 C389,524 394,525 399,524 C398,517 393,513 386,513 C379,513 375,517 374,525 C377,525 380,525 385,525 z"/><path fill="#000000" opacity="1.000000" stroke="none" d=" M831,527 C831,525 830,523 831,521 C831,517 830,515 826,514 C822,514 821,512 821,509 C821,507 822,504 825,504 C831,504 831,501 831,496 C830,492 831,489 837,490 C840,490 842,491 842,495 C842,496 842,497 842,499 C842,503 843,504 848,504 C850,504 852,504 854,505 C855,507 855,509 855,511 C854,514 853,514 850,514 C842,515 842,515 842,523 C842,527 842,532 842,536 C842,542 844,543 849,543 C852,542 855,542 855,546 C856,550 854,552 850,553 C838,556 831,550 831,538 C831,535 831,531 831,527 z"/><path fill="#000000" opacity="1.000000" stroke="none" d=" M486,418 C490,422 495,423 499,425 C502,426 504,427 506,430 C496,427 486,427 476,421 C480,429 487,430 493,431 C496,431 500,431 503,432 C504,432 506,432 507,435 C500,435 494,438 487,439 C482,439 477,438 474,433 C472,430 469,427 464,426 C465,421 469,421 473,419 C469,413 465,406 470,399 C473,395 476,391 482,389 C478,400 477,410 486,418 z"/><path fill="#000000" opacity="1.000000" stroke="none" d=" M429,553 C422,553 422,553 422,546 C422,535 422,523 422,512 C422,509 420,506 425,504 C429,503 432,504 434,509 C438,506 441,504 446,504 C450,504 451,505 451,509 C451,512 451,514 447,515 C436,515 433,519 433,529 C433,536 433,542 433,548 C433,551 432,553 429,553 z"/><path fill="#000000" opacity="1.000000" stroke="none" d=" M499,389 C505,387 510,387 514,392 C517,396 517,400 513,402 C506,407 498,409 490,405 C486,404 482,401 482,396 C483,391 485,386 490,383 C493,381 497,379 500,377 C509,374 519,382 518,392 C513,389 509,386 504,386 C499,386 495,387 491,390 C487,394 489,400 494,402 C497,403 501,402 504,401 C506,400 509,399 509,396 C509,395 508,393 507,393 C504,392 501,392 499,394 C501,397 503,395 506,395 C506,399 504,400 502,400 C498,401 494,400 493,396 C492,392 495,391 499,389 z"/><path fill="#000000" opacity="1.000000" stroke="none" d=" M233,510 C233,523 233,535 233,547 C233,552 232,553 227,553 C223,553 221,552 221,548 C221,544 221,540 221,536 C222,528 222,519 221,511 C221,507 221,505 226,504 C231,504 232,505 233,510 z"/><path fill="#000000" opacity="1.000000" stroke="none" d=" M537,408 C534,413 531,416 526,420 C525,417 527,416 528,414 C533,403 532,397 523,388 C522,387 520,386 519,385 C518,384 517,382 518,380 C519,378 521,378 523,379 C536,384 545,392 537,408 z"/><path fill="#000000" opacity="1.000000" stroke="none" d=" M522,393 C528,394 527,399 528,403 C529,407 528,411 526,414 C521,421 515,427 514,436 C510,432 510,428 511,425 C511,418 514,412 517,407 C520,403 522,398 522,393 z"/><path fill="#000000" opacity="1.000000" stroke="none" d=" M509,423 C508,425 509,427 507,428 C498,422 486,420 484,406 C492,410 499,411 507,412 C510,413 511,415 510,418 C509,419 509,421 509,423 z"/><path fill="#000000" opacity="1.000000" stroke="none" d=" M230,484 C234,487 234,489 234,493 C233,495 231,497 229,497 C226,498 223,497 221,494 C219,492 220,489 221,487 C223,484 226,483 230,484 z"/><path fill="#000000" opacity="1.000000" stroke="none" d=" M542,461 C546,468 545,474 539,478 C534,481 525,479 523,473 C524,472 525,473 527,474 C535,477 540,473 541,464 C541,463 540,461 542,461 z"/><path fill="#000000" opacity="1.000000" stroke="none" d=" M515,409 C511,415 508,411 504,409 C508,406 511,406 515,405 C516,406 515,407 515,409 z"/></svg>
